<?xml version="1.0" standalone="no"?>
<!DOCTYPE svg PUBLIC "-//W3C//DTD SVG 20010904//EN"
 "http://www.w3.org/TR/2001/REC-SVG-20010904/DTD/svg10.dtd">
<svg version="1.0" xmlns="http://www.w3.org/2000/svg"
 width="271.000000pt" height="271.000000pt" viewBox="0 0 271.000000 271.000000"
 preserveAspectRatio="xMidYMid meet">
<metadata>
Created by potrace 1.14, written by Peter Selinger 2001-2017
</metadata>
<g transform="translate(0.000000,271.000000) scale(0.100000,-0.100000)"
fill="#000000" stroke="none">
<path d="M590 2226 c-95 -28 -149 -62 -226 -141 -110 -114 -140 -208 -139
-437 l0 -158 -30 -1 c-16 -1 -66 -2 -110 -3 l-80 -1 -3 -152 -3 -153 58 -1
c32 0 81 0 109 1 46 1 52 -1 55 -22 3 -13 4 -170 3 -350 0 -290 1 -327 15
-330 9 -2 77 -4 151 -3 l135 0 2 300 c1 165 2 324 2 353 l1 52 103 0 102 0 0
153 0 152 -103 0 -102 0 -1 30 c0 17 -1 83 0 148 0 130 10 164 65 218 80 78
207 79 289 1 63 -59 61 -46 63 -522 0 -240 4 -453 8 -475 17 -90 82 -202 161
-277 149 -143 408 -174 590 -73 54 30 165 128 165 146 0 4 6 14 13 21 18 18
63 115 75 163 6 22 13 67 17 100 10 94 23 133 61 175 92 102 273 80 334 -40
41 -80 32 -178 -20 -242 -72 -87 -211 -100 -294 -28 -40 36 -41 36 -43 9 -4
-49 -80 -186 -125 -228 -10 -8 -18 -19 -18 -22 0 -12 92 -65 155 -89 68 -25
193 -35 265 -19 132 28 282 143 347 265 108 205 78 460 -72 618 -65 67 -184
126 -285 143 -74 12 -187 4 -251 -17 -88 -30 -124 -53 -196 -126 -95 -95 -145
-212 -158 -364 -8 -92 -33 -140 -94 -180 -112 -75 -242 -40 -303 80 l-28 55
-1 445 0 445 -29 73 c-54 138 -166 246 -315 301 -89 34 -217 36 -315 7z"/>
</g>
</svg>
